<svg xmlns="http://www.w3.org/2000/svg" viewBox="0 0 1640 624" width="1640" height="624">
  <defs>
    <linearGradient id="sun" x1="4" y1="4" x2="28" y2="26" gradientUnits="userSpaceOnUse">
      <stop offset="0%" stop-color="#f97316"/><stop offset="52%" stop-color="#fb6f7d"/><stop offset="100%" stop-color="#7a2f5e"/>
    </linearGradient>
    <linearGradient id="ground" x1="0" y1="0" x2="0" y2="624" gradientUnits="userSpaceOnUse">
      <stop offset="0%" stop-color="#fffcf8"/><stop offset="100%" stop-color="#f7ede1"/>
    </linearGradient>
    <radialGradient id="glowA" cx="1220" cy="330" r="340" gradientUnits="userSpaceOnUse">
      <stop offset="0%" stop-color="#f97316" stop-opacity="0.22"/><stop offset="100%" stop-color="#f97316" stop-opacity="0"/>
    </radialGradient>
    <radialGradient id="glowB" cx="980" cy="470" r="380" gradientUnits="userSpaceOnUse">
      <stop offset="0%" stop-color="#fb6f7d" stop-opacity="0.18"/><stop offset="100%" stop-color="#fb6f7d" stop-opacity="0"/>
    </radialGradient>
    <linearGradient id="rule" x1="210" y1="0" x2="700" y2="0" gradientUnits="userSpaceOnUse">
      <stop offset="0%" stop-color="#f97316"/><stop offset="100%" stop-color="#fb6f7d" stop-opacity="0"/>
    </linearGradient>
  </defs>

  <rect width="1640" height="624" fill="url(#ground)"/>
  <rect width="1640" height="624" fill="url(#glowA)"/>
  <rect width="1640" height="624" fill="url(#glowB)"/>

  <!-- Sun mark, kept inside the 180..1460 mobile-safe band -->
  <g transform="translate(1050 152) scale(10.6)">
    <path d="M5.5 19.5a10.5 10.5 0 0 1 21 0Z" fill="url(#sun)"/>
    <g stroke="#fff" stroke-width="1.05" stroke-linecap="round" opacity="0.5">
      <path d="M16 19.5V10.2"/><path d="M16 19.5l6.6-6.6"/><path d="M16 19.5l-6.6-6.6"/>
      <path d="M16 19.5l9.1-3.8"/><path d="M16 19.5l-9.1-3.8"/>
    </g>
    <g fill="url(#sun)">
      <rect x="3" y="22.4" width="26" height="2.1" rx="1.05"/>
      <rect x="7.5" y="26.6" width="17" height="2.1" rx="1.05" opacity="0.55"/>
    </g>
  </g>

  <g font-family="Helvetica Neue, Helvetica, Arial, sans-serif">
    <text x="210" y="176" font-size="21" font-weight="600" letter-spacing="4.2" fill="#9c8b9e">PORTABLE PRESSES · MADE FOR AUSTRALIA</text>
    <text x="210" y="272" font-size="70" font-weight="700" letter-spacing="-2.4" fill="#241a26">Fresh juice, wherever</text>
    <text x="210" y="350" font-size="70" font-weight="700" letter-spacing="-2.4" fill="#241a26">the day takes you.</text>
    <rect x="210" y="378" width="490" height="3" rx="1.5" fill="url(#rule)"/>
    <text x="210" y="424" font-size="25" font-weight="500" letter-spacing="-0.2" fill="#6b5a6e">Free shipping Australia-wide · Buy 3, get 1 free</text>
  </g>
</svg>
